<svg id="svg" version="1.1" xmlns="http://www.w3.org/2000/svg" xmlns:xlink="http://www.w3.org/1999/xlink" width="400" height="149" viewBox="0, 0, 400,149"><g id="svgg"><path id="path0" d="M146.500 3.250 L 146.500 6.500 145.700 6.500 C 144.427 6.500,144.500 5.973,144.500 15.170 L 144.500 23.439 143.631 23.595 C 142.445 23.806,142.535 22.037,142.517 45.542 L 142.500 66.500 142.002 66.500 L 141.503 66.500 141.460 59.042 L 141.417 51.583 131.000 51.583 L 120.583 51.583 120.541 74.042 L 120.499 96.500 119.499 96.500 L 118.500 96.500 118.500 91.200 C 118.500 85.278,118.547 85.500,117.305 85.500 L 116.511 85.500 116.464 78.839 C 116.420 72.706,116.393 72.155,116.119 71.881 C 115.855 71.617,115.405 71.577,112.122 71.527 C 106.050 71.435,106.501 70.819,106.501 79.197 L 106.500 85.478 106.042 85.531 L 105.583 85.583 105.541 100.542 L 105.498 115.500 200.499 115.500 L 295.500 115.500 295.500 108.000 L 295.500 100.500 292.500 100.500 L 289.500 100.500 289.500 82.187 C 289.500 66.915,289.462 63.843,289.272 63.685 C 289.109 63.549,287.014 63.509,281.814 63.540 L 274.583 63.583 274.540 71.542 L 274.497 79.500 273.498 79.500 L 272.500 79.500 272.500 83.000 L 272.500 86.500 271.500 86.500 L 270.501 86.500 270.459 55.542 L 270.417 24.583 265.687 24.539 C 260.774 24.493,260.500 24.527,260.500 25.187 C 260.500 25.377,260.382 25.500,260.200 25.500 C 259.823 25.500,259.500 25.814,259.500 26.182 C 259.500 26.343,259.323 26.508,259.086 26.568 C 258.830 26.632,258.632 26.830,258.567 27.087 C 258.505 27.334,258.306 27.542,258.075 27.600 C 257.821 27.664,257.650 27.862,257.582 28.172 C 257.514 28.485,257.358 28.664,257.125 28.698 C 256.908 28.730,256.728 28.918,256.656 29.188 C 256.592 29.429,256.306 29.849,256.020 30.123 C 255.517 30.604,255.500 30.665,255.500 32.054 L 255.500 33.489 253.542 33.536 L 251.583 33.583 251.541 64.542 L 251.499 95.500 251.001 95.500 L 250.502 95.500 250.459 82.042 L 250.417 68.583 247.958 68.537 L 245.500 68.491 245.500 54.996 L 245.500 41.500 244.917 41.500 C 244.427 41.500,244.333 41.441,244.333 41.134 C 244.333 40.933,244.152 40.577,243.930 40.342 C 243.708 40.108,243.460 39.657,243.379 39.339 C 243.192 38.605,242.953 38.538,240.458 38.517 L 238.500 38.500 238.500 32.262 C 238.500 25.057,238.602 25.500,236.938 25.500 C 235.446 25.500,235.500 25.342,235.500 29.689 L 235.500 33.478 235.042 33.531 L 234.583 33.583 234.537 36.042 L 234.491 38.500 232.506 38.500 C 230.334 38.500,229.759 38.630,229.622 39.152 C 229.573 39.341,229.348 39.566,229.122 39.652 C 228.699 39.813,228.506 40.245,228.502 41.042 C 228.500 41.414,228.425 41.500,228.099 41.500 C 227.806 41.500,227.559 41.710,227.182 42.279 L 226.667 43.057 226.654 54.987 C 226.646 61.548,226.603 66.823,226.556 66.708 C 226.437 66.412,211.996 66.404,211.700 66.700 C 211.547 66.853,211.500 70.757,211.500 83.254 L 211.500 99.609 211.000 99.536 L 210.500 99.462 210.500 95.168 C 210.500 91.701,210.455 90.837,210.268 90.681 C 209.994 90.454,196.951 90.493,196.722 90.722 C 196.646 90.798,196.558 91.473,196.526 92.222 L 196.470 93.583 192.985 93.535 L 189.500 93.487 189.500 81.755 C 189.500 67.914,189.857 69.500,186.738 69.500 L 184.500 69.500 184.500 63.700 C 184.500 57.018,184.632 57.500,182.802 57.500 L 181.505 57.500 181.461 52.042 L 181.417 46.583 180.458 46.533 L 179.500 46.483 179.500 37.992 L 179.500 29.500 177.762 29.500 C 175.255 29.500,175.500 28.551,175.500 38.262 L 175.500 46.500 175.000 46.500 C 174.686 46.500,174.500 46.586,174.500 46.730 C 174.500 46.856,174.387 47.053,174.250 47.167 C 174.038 47.343,174.000 48.139,174.000 52.430 L 174.000 57.485 172.792 57.534 L 171.583 57.583 171.540 63.537 L 171.496 69.491 169.040 69.537 L 166.583 69.583 166.538 72.542 L 166.492 75.500 165.496 75.500 L 164.500 75.500 164.500 49.700 C 164.500 29.856,164.454 23.854,164.300 23.700 C 164.169 23.569,163.478 23.500,162.302 23.500 L 160.503 23.500 160.460 15.042 L 160.417 6.583 158.958 6.535 L 157.500 6.487 157.500 4.194 C 157.500 1.826,157.415 1.500,156.800 1.500 C 156.622 1.500,156.500 1.378,156.500 1.200 C 156.500 1.035,156.410 0.810,156.300 0.700 C 156.190 0.590,155.965 0.500,155.800 0.500 C 155.635 0.500,155.500 0.388,155.500 0.250 C 155.500 0.034,154.889 0.000,151.000 0.000 L 146.500 0.000 146.500 3.250 M188.625 87.887 C 188.600 91.112,188.579 88.425,188.579 81.917 C 188.579 75.408,188.600 72.770,188.625 76.054 C 188.650 79.338,188.650 84.663,188.625 87.887 M113.458 119.611 C 113.665 119.655,113.833 119.764,113.833 119.855 C 113.833 119.945,113.903 119.977,113.988 119.924 C 114.622 119.532,114.289 121.145,113.605 121.778 L 113.034 122.307 109.816 122.326 C 108.047 122.337,106.564 122.380,106.522 122.423 C 106.479 122.465,108.173 122.500,110.285 122.500 C 114.767 122.500,114.538 122.593,114.466 120.807 L 114.417 119.583 113.750 119.558 C 113.383 119.544,113.252 119.568,113.458 119.611 M119.611 119.611 C 119.396 119.826,119.482 134.082,119.700 134.300 C 119.828 134.428,120.478 134.500,121.500 134.500 C 123.642 134.500,123.500 134.797,123.500 130.300 L 123.500 126.500 123.958 126.489 C 124.399 126.479,124.402 126.473,124.042 126.328 C 123.830 126.243,123.667 126.034,123.667 125.849 C 123.667 125.668,123.592 125.473,123.500 125.417 C 123.391 125.349,123.329 126.571,123.321 128.948 C 123.305 133.287,123.330 133.116,122.611 133.777 C 121.914 134.417,120.813 134.450,120.388 133.843 C 120.254 133.651,120.083 133.532,120.008 133.579 C 119.739 133.744,119.689 132.662,119.678 126.500 C 119.667 120.114,119.675 120.025,120.250 119.699 C 120.565 119.521,120.559 119.510,120.153 119.505 C 119.916 119.502,119.672 119.550,119.611 119.611 M122.178 119.567 C 122.229 119.618,122.436 119.684,122.640 119.716 C 122.953 119.763,123.610 120.646,123.688 121.125 C 123.699 121.194,123.886 121.415,124.104 121.617 L 124.500 121.984 124.500 121.442 C 124.500 120.841,124.250 120.500,123.811 120.500 C 123.620 120.500,123.504 120.345,123.469 120.042 C 123.423 119.638,123.337 119.577,122.751 119.529 C 122.386 119.499,122.128 119.516,122.178 119.567 M129.611 119.611 C 129.550 119.672,129.500 121.472,129.500 123.611 L 129.500 127.500 129.125 127.519 C 128.860 127.533,128.832 127.560,129.031 127.613 C 129.186 127.654,129.386 127.889,129.476 128.135 C 129.592 128.452,129.645 127.358,129.656 124.417 C 129.672 120.130,129.686 120.019,130.250 119.699 C 130.565 119.521,130.559 119.510,130.153 119.505 C 129.916 119.502,129.672 119.550,129.611 119.611 M140.000 119.621 C 140.137 119.674,140.305 119.799,140.372 119.900 C 140.448 120.013,140.496 119.972,140.497 119.792 C 140.499 119.596,140.377 119.504,140.125 119.513 C 139.874 119.522,139.833 119.558,140.000 119.621 M147.611 119.611 C 147.550 119.672,147.505 119.916,147.511 120.153 C 147.522 120.570,147.528 120.572,147.696 120.226 C 147.791 120.029,148.029 119.791,148.226 119.696 C 148.572 119.528,148.570 119.522,148.153 119.511 C 147.916 119.505,147.672 119.550,147.611 119.611 M150.626 119.702 C 151.242 119.907,151.393 121.108,150.797 121.062 C 150.627 121.049,150.560 121.130,150.618 121.280 C 150.761 121.654,151.409 121.473,151.470 121.042 C 151.502 120.816,151.436 120.666,151.303 120.664 C 151.123 120.662,151.124 120.636,151.306 120.520 C 151.811 120.200,151.458 119.585,150.750 119.552 L 150.083 119.521 150.626 119.702 M164.611 119.611 C 164.396 119.826,164.482 134.082,164.700 134.300 C 164.828 134.428,165.478 134.500,166.500 134.500 C 168.576 134.500,168.500 134.604,168.500 131.772 C 168.500 130.492,168.466 129.478,168.425 129.519 C 168.384 129.560,168.337 130.378,168.321 131.338 L 168.291 133.082 167.678 133.694 C 166.950 134.422,165.844 134.494,165.388 133.843 C 165.254 133.651,165.083 133.532,165.008 133.579 C 164.739 133.744,164.689 132.662,164.678 126.500 C 164.667 120.114,164.675 120.025,165.250 119.699 C 165.565 119.521,165.559 119.510,165.153 119.505 C 164.916 119.502,164.672 119.550,164.611 119.611 M173.917 119.667 C 174.372 119.862,174.500 119.862,174.500 119.667 C 174.500 119.575,174.294 119.505,174.042 119.512 C 173.636 119.522,173.621 119.540,173.917 119.667 M184.512 119.958 C 184.522 120.341,184.544 120.364,184.649 120.096 C 184.718 119.919,184.919 119.718,185.096 119.649 C 185.364 119.544,185.341 119.522,184.958 119.512 C 184.564 119.502,184.502 119.564,184.512 119.958 M191.458 119.689 C 191.975 119.808,192.167 119.936,192.167 120.159 C 192.167 120.327,192.268 120.503,192.393 120.551 C 192.566 120.618,192.594 120.515,192.512 120.111 C 192.410 119.609,192.364 119.582,191.577 119.554 L 190.750 119.525 191.458 119.689 M200.611 119.611 C 200.396 119.826,200.482 134.082,200.700 134.300 C 200.828 134.428,201.478 134.500,202.500 134.500 C 204.642 134.500,204.500 134.797,204.500 130.300 C 204.500 126.611,204.510 126.500,204.833 126.500 C 205.165 126.500,205.165 126.499,204.837 126.170 C 204.656 125.989,204.551 125.727,204.605 125.587 C 204.659 125.448,204.619 125.333,204.518 125.333 C 204.389 125.333,204.329 126.427,204.321 128.958 C 204.305 133.286,204.330 133.116,203.611 133.777 C 202.914 134.417,201.813 134.450,201.388 133.843 C 201.254 133.651,201.083 133.532,201.008 133.579 C 200.739 133.744,200.689 132.662,200.678 126.500 C 200.667 120.114,200.675 120.025,201.250 119.699 C 201.565 119.521,201.559 119.510,201.153 119.505 C 200.916 119.502,200.672 119.550,200.611 119.611 M203.458 119.611 C 203.665 119.655,203.833 119.764,203.833 119.855 C 203.833 119.945,203.906 119.975,203.995 119.920 C 204.084 119.865,204.205 120.011,204.264 120.245 C 204.329 120.505,204.525 120.708,204.768 120.770 C 205.007 120.829,205.167 120.992,205.167 121.175 C 205.167 121.343,205.247 121.530,205.345 121.591 C 205.462 121.663,205.505 121.508,205.470 121.142 C 205.426 120.676,205.342 120.575,204.968 120.532 C 204.622 120.492,204.508 120.378,204.468 120.032 C 204.422 119.633,204.342 119.581,203.750 119.558 C 203.383 119.544,203.252 119.568,203.458 119.611 M210.611 119.611 C 210.550 119.672,210.500 121.472,210.500 123.611 L 210.500 127.500 210.125 127.519 C 209.860 127.533,209.832 127.560,210.031 127.613 C 210.186 127.654,210.386 127.889,210.476 128.135 C 210.592 128.452,210.645 127.358,210.656 124.417 C 210.672 120.130,210.686 120.019,211.250 119.699 C 211.565 119.521,211.559 119.510,211.153 119.505 C 210.916 119.502,210.672 119.550,210.611 119.611 M228.690 119.720 C 228.815 119.855,228.973 119.931,229.042 119.889 C 229.110 119.848,229.167 119.879,229.167 119.958 C 229.167 120.038,229.273 120.249,229.404 120.426 C 229.620 120.722,229.631 120.699,229.523 120.167 C 229.425 119.685,229.323 119.574,228.934 119.529 C 228.526 119.482,228.493 119.507,228.690 119.720 M238.593 119.708 C 238.379 120.413,238.381 120.638,238.602 120.553 C 238.819 120.470,238.904 120.262,238.849 119.946 C 238.836 119.870,238.884 119.845,238.956 119.890 C 239.028 119.934,239.274 119.867,239.502 119.741 C 239.914 119.514,239.912 119.512,239.286 119.506 C 238.923 119.502,238.629 119.588,238.593 119.708 M246.031 119.613 C 246.186 119.654,246.346 119.814,246.387 119.969 C 246.440 120.168,246.467 120.141,246.481 119.875 C 246.496 119.586,246.414 119.504,246.125 119.519 C 245.859 119.533,245.832 119.560,246.031 119.613 M257.519 119.875 C 257.533 120.141,257.560 120.168,257.613 119.969 C 257.654 119.814,257.814 119.654,257.969 119.613 C 258.168 119.560,258.141 119.533,257.875 119.519 C 257.586 119.504,257.504 119.586,257.519 119.875 M279.167 119.667 C 279.167 119.758,279.257 119.815,279.367 119.792 C 279.478 119.769,279.572 119.837,279.576 119.942 C 279.580 120.048,279.790 120.326,280.042 120.559 L 280.500 120.984 280.500 120.442 C 280.500 120.144,280.410 119.810,280.300 119.700 C 280.058 119.458,279.167 119.432,279.167 119.667 M296.458 119.611 C 296.665 119.655,296.833 119.764,296.833 119.855 C 296.833 119.945,296.903 119.977,296.988 119.924 C 297.622 119.532,297.289 121.145,296.605 121.778 L 296.034 122.307 292.816 122.326 C 291.047 122.337,289.564 122.380,289.522 122.423 C 289.479 122.465,291.173 122.500,293.285 122.500 C 297.767 122.500,297.538 122.593,297.466 120.807 L 297.417 119.583 296.750 119.558 C 296.383 119.544,296.252 119.568,296.458 119.611 M140.556 120.875 C 140.586 121.081,140.770 121.323,140.967 121.412 C 141.163 121.502,141.354 121.689,141.392 121.829 C 141.430 121.969,141.470 121.817,141.481 121.492 C 141.502 120.845,141.265 120.500,140.801 120.500 C 140.586 120.500,140.517 120.605,140.556 120.875 M174.978 120.650 C 175.103 120.729,175.271 120.897,175.350 121.022 C 175.457 121.190,175.496 121.151,175.497 120.875 C 175.499 120.596,175.404 120.501,175.125 120.503 C 174.849 120.504,174.810 120.543,174.978 120.650 M183.519 120.875 C 183.533 121.141,183.560 121.168,183.613 120.969 C 183.654 120.814,183.814 120.654,183.969 120.613 C 184.168 120.560,184.141 120.533,183.875 120.519 C 183.586 120.504,183.504 120.586,183.519 120.875 M192.978 120.650 C 193.103 120.729,193.271 120.897,193.350 121.022 C 193.457 121.190,193.496 121.151,193.497 120.875 C 193.499 120.596,193.404 120.501,193.125 120.503 C 192.849 120.504,192.810 120.543,192.978 120.650 M220.519 120.875 C 220.533 121.141,220.560 121.168,220.613 120.969 C 220.654 120.814,220.814 120.654,220.969 120.613 C 221.168 120.560,221.141 120.533,220.875 120.519 C 220.586 120.504,220.504 120.586,220.519 120.875 M229.978 120.650 C 230.103 120.729,230.271 120.897,230.350 121.022 C 230.457 121.190,230.496 121.151,230.497 120.875 C 230.499 120.596,230.404 120.501,230.125 120.503 C 229.849 120.504,229.810 120.543,229.978 120.650 M237.503 120.875 C 237.504 121.151,237.543 121.190,237.650 121.022 C 237.729 120.897,237.897 120.729,238.022 120.650 C 238.190 120.543,238.151 120.504,237.875 120.503 C 237.596 120.501,237.501 120.596,237.503 120.875 M256.700 120.700 C 256.590 120.810,256.505 121.166,256.511 121.492 C 256.520 122.025,256.536 122.045,256.676 121.698 C 256.761 121.485,256.901 121.355,256.987 121.409 C 257.164 121.518,257.385 121.226,257.452 120.792 C 257.505 120.451,257.009 120.391,256.700 120.700 M260.917 120.667 C 261.372 120.862,261.500 120.862,261.500 120.667 C 261.500 120.575,261.294 120.505,261.042 120.512 C 260.636 120.522,260.621 120.540,260.917 120.667 M175.486 121.641 C 175.567 121.793,175.650 121.992,175.670 122.083 C 175.691 122.175,175.886 122.462,176.104 122.721 L 176.500 123.192 176.500 122.533 C 176.500 121.842,176.328 121.608,175.711 121.457 C 175.405 121.382,175.365 121.415,175.486 121.641 M193.493 121.560 C 193.598 121.664,193.771 121.750,193.878 121.750 C 193.985 121.750,194.166 122.050,194.280 122.417 L 194.486 123.083 194.452 122.339 C 194.419 121.639,194.384 121.589,193.860 121.482 C 193.442 121.397,193.350 121.417,193.493 121.560 M237.083 121.479 C 236.638 121.573,236.579 121.657,236.546 122.251 C 236.512 122.852,236.525 122.876,236.680 122.500 C 236.775 122.271,237.054 121.917,237.301 121.714 C 237.548 121.511,237.713 121.351,237.667 121.359 C 237.621 121.367,237.358 121.420,237.083 121.479 M146.700 121.700 C 146.590 121.810,146.505 122.166,146.511 122.492 C 146.520 123.025,146.536 123.045,146.676 122.698 C 146.761 122.485,146.901 122.355,146.987 122.409 C 147.164 122.518,147.385 122.226,147.452 121.792 C 147.505 121.451,147.009 121.391,146.700 121.700 M182.512 121.958 C 182.522 122.341,182.544 122.364,182.649 122.096 C 182.718 121.919,182.919 121.718,183.096 121.649 C 183.364 121.544,183.341 121.522,182.958 121.512 C 182.564 121.502,182.502 121.564,182.512 121.958 M219.611 121.611 C 219.550 121.672,219.502 121.953,219.505 122.236 C 219.510 122.702,219.527 122.719,219.693 122.417 C 219.794 122.233,220.036 121.954,220.230 121.795 L 220.583 121.507 220.153 121.504 C 219.916 121.502,219.672 121.550,219.611 121.611 M225.067 121.853 C 224.893 122.047,224.600 122.267,224.417 122.342 C 224.100 122.472,224.102 122.479,224.458 122.489 C 224.665 122.495,224.834 122.406,224.836 122.292 C 224.837 122.162,224.885 122.147,224.961 122.251 C 225.028 122.343,225.421 122.435,225.833 122.457 C 226.563 122.495,226.572 122.490,226.167 122.254 C 225.938 122.121,225.812 122.009,225.887 122.006 C 226.020 122.000,225.593 121.500,225.454 121.500 C 225.416 121.500,225.242 121.659,225.067 121.853 M280.818 121.645 C 281.039 121.707,281.277 121.906,281.348 122.087 C 281.458 122.370,281.478 122.351,281.488 121.958 C 281.499 121.547,281.445 121.502,280.958 121.517 C 280.476 121.531,280.461 121.546,280.818 121.645 M137.503 122.125 C 137.501 122.404,137.596 122.499,137.875 122.497 C 138.151 122.496,138.190 122.457,138.022 122.350 C 137.897 122.271,137.729 122.103,137.650 121.978 C 137.543 121.810,137.504 121.849,137.503 122.125 M229.917 122.515 C 229.642 122.863,229.342 123.140,229.250 123.131 C 229.158 123.122,228.965 123.166,228.820 123.231 C 228.495 123.375,227.611 123.058,227.743 122.845 C 227.796 122.760,227.757 122.639,227.657 122.577 C 227.537 122.503,227.493 122.628,227.529 122.941 C 227.583 123.413,227.594 123.417,228.849 123.465 C 230.302 123.520,230.553 123.364,230.469 122.453 L 230.417 121.882 229.917 122.515 M187.833 122.343 C 187.522 122.435,187.645 122.471,188.319 122.483 C 189.241 122.500,189.404 122.407,188.663 122.286 C 188.436 122.249,188.063 122.275,187.833 122.343 M242.167 122.347 C 241.873 122.432,242.040 122.472,242.736 122.483 C 243.278 122.493,243.685 122.462,243.639 122.417 C 243.489 122.267,242.593 122.225,242.167 122.347 M168.406 122.552 C 168.360 122.672,168.346 123.628,168.375 124.677 L 168.429 126.583 168.464 124.548 L 168.500 122.513 170.042 122.458 L 171.583 122.403 170.036 122.368 C 168.889 122.342,168.468 122.390,168.406 122.552 M244.275 122.446 C 244.380 122.521,244.493 122.771,244.525 123.000 C 244.568 123.310,244.698 123.430,245.032 123.468 C 245.378 123.508,245.492 123.622,245.532 123.968 C 245.582 124.404,245.617 124.418,246.807 124.466 C 248.302 124.526,248.507 124.391,248.481 123.355 C 248.470 122.930,248.424 122.730,248.379 122.909 C 248.293 123.244,247.395 124.175,247.195 124.136 C 247.134 124.124,246.965 124.166,246.820 124.230 C 246.531 124.359,245.648 124.084,245.692 123.879 C 245.753 123.597,245.449 123.167,245.188 123.167 C 245.037 123.167,244.838 123.003,244.748 122.802 C 244.657 122.602,244.471 122.409,244.333 122.373 C 244.166 122.329,244.147 122.353,244.275 122.446 M274.292 122.456 C 274.773 122.490,275.560 122.490,276.042 122.456 C 276.523 122.423,276.129 122.395,275.167 122.395 C 274.204 122.395,273.810 122.423,274.292 122.456 M277.500 122.696 C 277.500 123.175,277.783 123.500,278.200 123.500 C 278.569 123.500,278.602 122.959,278.250 122.667 C 278.112 122.553,278.000 122.515,278.000 122.583 C 278.000 122.652,277.887 122.614,277.750 122.500 C 277.539 122.325,277.500 122.356,277.500 122.696 M125.000 122.621 C 125.138 122.674,125.305 122.799,125.372 122.900 C 125.448 123.013,125.496 122.972,125.497 122.792 C 125.499 122.596,125.377 122.504,125.125 122.513 C 124.874 122.522,124.833 122.558,125.000 122.621 M172.517 122.958 C 172.502 123.445,172.547 123.499,172.958 123.488 C 173.351 123.478,173.370 123.458,173.087 123.348 C 172.906 123.277,172.707 123.039,172.645 122.818 C 172.546 122.461,172.531 122.476,172.517 122.958 M181.611 122.611 C 181.550 122.672,181.506 123.066,181.514 123.486 C 181.528 124.214,181.812 123.870,181.874 123.051 C 181.882 122.941,181.933 122.857,181.986 122.862 C 182.286 122.895,182.500 122.813,182.500 122.667 C 182.500 122.481,181.786 122.437,181.611 122.611 M185.773 123.163 C 185.440 123.532,185.167 123.898,185.167 123.975 C 185.167 124.052,184.998 124.197,184.792 124.297 C 184.438 124.467,184.447 124.478,184.958 124.489 C 185.432 124.499,185.500 124.446,185.500 124.071 C 185.500 123.576,185.925 123.038,186.049 123.376 C 186.109 123.539,186.174 123.537,186.353 123.368 C 186.544 123.187,186.544 123.130,186.355 123.013 C 186.165 122.896,186.165 122.861,186.356 122.793 C 186.481 122.749,186.538 122.663,186.482 122.602 C 186.426 122.541,186.107 122.793,185.773 123.163 M206.000 122.621 C 206.137 122.674,206.305 122.799,206.372 122.900 C 206.448 123.013,206.496 122.972,206.497 122.792 C 206.499 122.596,206.377 122.504,206.125 122.513 C 205.874 122.522,205.833 122.558,206.000 122.621 M222.928 122.988 C 222.467 123.470,222.466 123.833,222.927 123.833 C 223.059 123.833,223.167 123.983,223.167 124.167 C 223.167 124.350,223.198 124.500,223.236 124.500 C 223.275 124.500,223.443 124.545,223.611 124.599 C 223.829 124.670,223.854 124.653,223.701 124.543 C 223.582 124.457,223.472 124.075,223.457 123.694 C 223.442 123.312,223.351 122.999,223.256 122.997 C 223.161 122.996,223.194 122.925,223.329 122.840 C 223.463 122.755,223.533 122.644,223.483 122.594 C 223.433 122.544,223.183 122.722,222.928 122.988 M261.583 122.667 C 261.640 122.758,261.785 122.833,261.906 122.833 C 262.026 122.833,262.184 123.077,262.257 123.375 L 262.388 123.917 262.457 123.444 C 262.555 122.763,262.403 122.500,261.912 122.500 C 261.667 122.500,261.525 122.572,261.583 122.667 M150.333 122.922 C 150.333 123.062,150.165 123.245,149.958 123.328 C 149.598 123.473,149.601 123.479,150.042 123.489 C 150.422 123.498,150.500 123.429,150.500 123.083 C 150.500 122.854,150.462 122.667,150.417 122.667 C 150.371 122.667,150.333 122.782,150.333 122.922 M190.503 123.125 C 190.501 123.404,190.596 123.499,190.875 123.497 C 191.151 123.496,191.190 123.457,191.022 123.350 C 190.897 123.271,190.729 123.103,190.650 122.978 C 190.543 122.810,190.504 122.849,190.503 123.125 M240.125 123.181 C 239.846 123.486,239.848 123.500,240.167 123.500 C 240.389 123.500,240.500 123.389,240.500 123.167 C 240.500 122.772,240.498 122.772,240.125 123.181 M125.978 123.650 C 126.103 123.729,126.271 123.897,126.350 124.022 C 126.457 124.190,126.496 124.151,126.497 123.875 C 126.499 123.596,126.404 123.501,126.125 123.503 C 125.849 123.504,125.810 123.543,125.978 123.650 M141.690 123.720 C 141.815 123.856,141.950 123.934,141.991 123.895 C 142.032 123.855,142.165 123.994,142.286 124.203 C 142.501 124.576,142.504 124.574,142.461 124.083 C 142.424 123.670,142.334 123.574,141.940 123.529 C 141.527 123.482,141.493 123.507,141.690 123.720 M194.556 123.610 C 194.632 123.687,194.775 123.750,194.874 123.750 C 194.973 123.750,195.151 124.013,195.271 124.333 L 195.488 124.917 195.452 124.250 C 195.420 123.642,195.372 123.578,194.917 123.527 C 194.642 123.496,194.479 123.533,194.556 123.610 M206.978 123.650 C 207.103 123.729,207.271 123.897,207.350 124.022 C 207.457 124.190,207.496 124.151,207.497 123.875 C 207.499 123.596,207.404 123.501,207.125 123.503 C 206.849 123.504,206.810 123.543,206.978 123.650 M235.611 123.611 C 235.550 123.672,235.505 123.991,235.511 124.319 C 235.521 124.885,235.530 124.895,235.685 124.500 C 235.775 124.271,236.014 123.954,236.216 123.795 L 236.583 123.507 236.153 123.504 C 235.916 123.502,235.672 123.550,235.611 123.611 M255.512 123.958 C 255.522 124.341,255.544 124.364,255.649 124.096 C 255.718 123.919,255.919 123.718,256.096 123.649 C 256.364 123.544,256.341 123.522,255.958 123.512 C 255.564 123.502,255.502 123.564,255.512 123.958 M138.552 124.750 C 138.582 125.380,139.500 125.956,139.500 125.344 C 139.500 125.247,139.361 125.167,139.191 125.167 C 138.990 125.167,138.818 124.977,138.701 124.625 L 138.521 124.083 138.552 124.750 M126.515 124.602 C 126.619 124.727,126.767 124.791,126.843 124.744 C 126.963 124.670,127.579 125.735,127.582 126.026 C 127.583 126.086,127.790 126.326,128.042 126.559 L 128.500 126.984 128.500 126.442 C 128.500 125.841,128.250 125.500,127.811 125.500 C 127.621 125.500,127.504 125.345,127.469 125.048 C 127.427 124.687,127.306 124.573,126.871 124.485 C 126.422 124.393,126.359 124.414,126.515 124.602 M191.552 124.833 C 191.582 125.394,192.500 125.889,192.500 125.344 C 192.500 125.247,192.364 125.167,192.199 125.167 C 192.027 125.167,191.817 124.970,191.709 124.708 L 191.521 124.250 191.552 124.833 M207.515 124.602 C 207.619 124.727,207.767 124.791,207.843 124.744 C 207.963 124.670,208.579 125.735,208.582 126.026 C 208.583 126.086,208.790 126.326,209.042 126.559 L 209.500 126.984 209.500 126.442 C 209.500 125.841,209.250 125.500,208.811 125.500 C 208.621 125.500,208.504 125.345,208.469 125.048 C 208.427 124.687,208.306 124.573,207.871 124.485 C 207.422 124.393,207.359 124.414,207.515 124.602 M145.512 124.958 C 145.522 125.341,145.544 125.364,145.649 125.096 C 145.718 124.919,145.919 124.718,146.096 124.649 C 146.364 124.544,146.341 124.522,145.958 124.512 C 145.564 124.502,145.502 124.564,145.512 124.958 M172.611 124.611 C 172.550 124.672,172.500 124.897,172.500 125.111 C 172.500 125.374,172.403 125.500,172.200 125.500 C 171.816 125.500,171.500 125.816,171.500 126.199 C 171.500 126.404,171.605 126.482,171.836 126.447 C 172.161 126.397,172.697 126.000,172.438 126.000 C 172.367 126.000,172.464 125.804,172.652 125.564 C 172.841 125.324,172.953 125.059,172.902 124.976 C 172.851 124.893,172.870 124.836,172.946 124.849 C 173.257 124.903,173.500 124.823,173.500 124.667 C 173.500 124.481,172.786 124.437,172.611 124.611 M224.542 124.695 C 224.984 124.816,225.167 124.959,225.167 125.183 C 225.167 125.357,225.247 125.500,225.344 125.500 C 226.023 125.500,225.365 124.581,224.667 124.553 L 223.917 124.523 224.542 124.695 M239.062 124.805 C 239.075 124.969,238.969 125.075,238.805 125.062 C 238.628 125.049,238.560 125.128,238.618 125.280 C 238.668 125.410,238.868 125.495,239.063 125.467 C 239.475 125.408,239.641 124.757,239.280 124.618 C 239.128 124.560,239.049 124.628,239.062 124.805 M219.500 125.467 C 219.500 126.157,219.732 126.500,220.200 126.500 C 220.378 126.500,220.500 126.622,220.500 126.800 C 220.500 127.265,220.845 127.502,221.492 127.481 C 221.817 127.470,221.969 127.430,221.829 127.392 C 221.689 127.354,221.502 127.157,221.412 126.953 C 221.323 126.750,221.144 126.583,221.014 126.583 C 220.885 126.583,220.644 126.343,220.480 126.049 C 220.316 125.756,220.029 125.362,219.841 125.174 L 219.500 124.833 219.500 125.467 M148.958 125.506 C 148.427 125.997,148.353 126.500,148.813 126.500 C 149.255 126.500,149.532 126.101,149.470 125.553 L 149.417 125.083 148.958 125.506 M235.539 125.500 C 235.539 125.821,235.573 125.952,235.615 125.792 C 235.657 125.631,235.657 125.369,235.615 125.208 C 235.573 125.048,235.539 125.179,235.539 125.500 M175.942 125.949 C 175.681 126.252,175.550 126.500,175.650 126.500 C 175.751 126.500,175.834 126.406,175.836 126.292 C 175.838 126.153,175.891 126.166,175.996 126.332 C 176.128 126.542,176.186 126.545,176.368 126.353 C 176.544 126.166,176.542 126.110,176.356 126.042 C 176.180 125.978,176.176 125.931,176.335 125.832 C 176.448 125.762,176.513 125.636,176.479 125.552 C 176.445 125.467,176.203 125.646,175.942 125.949 M142.556 125.875 C 142.586 126.081,142.770 126.323,142.967 126.412 C 143.163 126.502,143.354 126.689,143.392 126.829 C 143.430 126.969,143.470 126.817,143.481 126.492 C 143.502 125.845,143.265 125.500,142.801 125.500 C 142.586 125.500,142.517 125.605,142.556 125.875 M228.402 126.032 C 228.733 126.325,229.134 126.590,229.293 126.622 C 229.453 126.653,229.687 126.701,229.813 126.727 C 229.940 126.754,230.143 126.995,230.265 127.263 L 230.488 127.750 230.452 127.167 C 230.422 126.665,230.353 126.576,229.958 126.531 C 229.655 126.496,229.500 126.380,229.500 126.189 C 229.500 125.729,229.150 125.500,228.451 125.500 L 227.801 125.500 228.402 126.032 M254.611 125.611 C 254.550 125.672,254.503 125.991,254.506 126.319 L 254.512 126.917 254.741 126.502 C 254.867 126.274,254.934 126.028,254.890 125.956 C 254.845 125.884,254.870 125.836,254.946 125.849 C 255.257 125.903,255.500 125.823,255.500 125.667 C 255.500 125.481,254.786 125.437,254.611 125.611 M259.529 125.940 C 259.574 126.334,259.670 126.424,260.083 126.461 C 260.574 126.504,260.576 126.501,260.203 126.286 C 259.994 126.165,259.855 126.032,259.895 125.991 C 259.934 125.950,259.856 125.815,259.720 125.690 C 259.507 125.493,259.482 125.527,259.529 125.940 M262.978 125.650 C 263.103 125.729,263.271 125.897,263.350 126.022 C 263.457 126.190,263.496 126.151,263.497 125.875 C 263.499 125.596,263.404 125.501,263.125 125.503 C 262.849 125.504,262.810 125.543,262.978 125.650 M277.503 125.875 C 277.504 126.151,277.543 126.190,277.650 126.022 C 277.729 125.897,277.897 125.729,278.022 125.650 C 278.190 125.543,278.151 125.504,277.875 125.503 C 277.596 125.501,277.501 125.596,277.503 125.875 M295.458 125.611 C 295.665 125.655,295.833 125.764,295.833 125.855 C 295.833 125.945,295.903 125.977,295.988 125.924 C 296.199 125.794,296.380 126.422,296.251 126.831 C 296.192 127.015,295.908 127.231,295.614 127.316 L 295.083 127.470 295.800 127.485 L 296.517 127.500 296.467 126.542 L 296.417 125.583 295.750 125.558 C 295.383 125.544,295.252 125.568,295.458 125.611 M184.372 126.500 C 184.372 126.821,184.406 126.952,184.448 126.792 C 184.490 126.631,184.490 126.369,184.448 126.208 C 184.406 126.048,184.372 126.179,184.372 126.500 M139.529 126.940 C 139.574 127.334,139.670 127.424,140.083 127.461 C 140.574 127.504,140.576 127.501,140.203 127.286 C 139.994 127.165,139.855 127.032,139.895 126.991 C 139.934 126.950,139.856 126.815,139.720 126.690 C 139.507 126.493,139.482 126.527,139.529 126.940 M144.611 126.611 C 144.550 126.672,144.503 126.991,144.506 127.319 L 144.512 127.917 144.741 127.502 C 144.867 127.274,144.934 127.028,144.890 126.956 C 144.845 126.884,144.870 126.836,144.946 126.849 C 145.257 126.903,145.500 126.823,145.500 126.667 C 145.500 126.481,144.786 126.437,144.611 126.611 M258.062 126.805 C 258.075 126.969,257.969 127.075,257.805 127.062 C 257.628 127.049,257.560 127.128,257.618 127.280 C 257.668 127.410,257.868 127.495,258.063 127.467 C 258.475 127.408,258.641 126.757,258.280 126.618 C 258.128 126.560,258.049 126.628,258.062 126.805 M281.258 126.810 C 281.204 126.980,280.992 127.200,280.788 127.298 C 280.440 127.466,280.451 127.478,280.958 127.489 C 281.452 127.499,281.500 127.455,281.500 127.000 C 281.500 126.432,281.402 126.355,281.258 126.810 M205.513 127.125 C 205.504 127.377,205.596 127.499,205.792 127.497 C 205.972 127.496,206.013 127.448,205.900 127.372 C 205.799 127.305,205.674 127.138,205.621 127.000 C 205.558 126.833,205.522 126.874,205.513 127.125 M174.750 127.764 C 174.383 128.166,173.949 128.496,173.785 128.497 C 173.538 128.500,173.524 128.540,173.702 128.733 C 173.820 128.860,173.966 128.935,174.025 128.899 C 174.134 128.834,174.566 129.812,174.527 130.032 C 174.515 130.096,174.730 130.308,175.003 130.502 L 175.500 130.856 175.500 130.378 C 175.500 129.832,175.236 129.500,174.800 129.500 C 174.615 129.500,174.500 129.377,174.500 129.180 C 174.500 129.004,174.458 128.752,174.407 128.618 C 174.338 128.437,174.414 128.395,174.709 128.451 C 175.219 128.549,175.538 128.161,175.470 127.527 L 175.417 127.033 174.750 127.764 M124.500 127.633 C 124.500 128.165,124.767 128.500,125.189 128.500 C 125.380 128.500,125.496 128.655,125.531 128.958 C 125.572 129.315,125.682 129.428,126.032 129.468 C 126.378 129.508,126.492 129.622,126.532 129.968 C 126.572 130.318,126.685 130.428,127.042 130.469 C 127.426 130.514,127.500 130.602,127.500 131.011 C 127.500 131.436,127.560 131.499,127.958 131.489 C 128.399 131.479,128.402 131.473,128.042 131.328 C 127.823 131.240,127.667 131.034,127.667 130.835 C 127.667 130.633,127.498 130.416,127.255 130.305 C 127.029 130.202,126.883 130.054,126.932 129.976 C 126.980 129.897,126.949 129.833,126.863 129.833 C 126.776 129.833,126.666 129.683,126.618 129.500 C 126.569 129.312,126.391 129.167,126.209 129.167 C 125.980 129.167,125.822 128.971,125.664 128.492 C 125.447 127.833,125.255 127.599,124.917 127.578 C 124.825 127.573,124.769 127.478,124.792 127.367 C 124.815 127.257,124.758 127.167,124.667 127.167 C 124.575 127.167,124.500 127.377,124.500 127.633 M147.942 127.949 C 147.681 128.252,147.550 128.500,147.650 128.500 C 147.751 128.500,147.834 128.406,147.836 128.292 C 147.838 128.153,147.891 128.166,147.996 128.332 C 148.128 128.542,148.186 128.545,148.368 128.353 C 148.544 128.166,148.542 128.110,148.356 128.042 C 148.180 127.978,148.176 127.931,148.335 127.832 C 148.448 127.762,148.513 127.636,148.479 127.552 C 148.445 127.467,148.203 127.646,147.942 127.949 M191.700 127.700 C 191.590 127.810,191.505 128.166,191.511 128.492 C 191.520 129.025,191.536 129.045,191.676 128.698 C 191.761 128.485,191.901 128.355,191.987 128.409 C 192.164 128.518,192.385 128.226,192.452 127.792 C 192.505 127.451,192.009 127.391,191.700 127.700 M223.529 127.941 C 223.579 128.381,223.640 128.419,224.333 128.443 L 225.083 128.470 224.458 128.289 C 224.115 128.189,223.833 128.013,223.833 127.897 C 223.833 127.781,223.753 127.636,223.654 127.575 C 223.538 127.504,223.494 127.632,223.529 127.941 M238.556 127.875 C 238.586 128.081,238.770 128.323,238.967 128.412 C 239.163 128.502,239.354 128.689,239.392 128.829 C 239.430 128.969,239.470 128.817,239.481 128.492 C 239.502 127.845,239.265 127.500,238.801 127.500 C 238.586 127.500,238.517 127.605,238.556 127.875 M253.700 127.700 C 253.590 127.810,253.506 128.204,253.514 128.575 L 253.527 129.250 253.756 128.750 C 253.882 128.475,253.988 128.321,253.992 128.408 C 254.005 128.679,254.393 128.190,254.447 127.836 C 254.505 127.454,254.032 127.368,253.700 127.700 M263.577 127.657 C 263.639 127.757,263.758 127.797,263.841 127.745 C 263.925 127.694,264.104 127.899,264.240 128.201 L 264.487 128.750 264.452 128.167 C 264.421 127.659,264.355 127.576,263.941 127.529 C 263.628 127.493,263.503 127.537,263.577 127.657 M280.125 128.181 C 279.846 128.486,279.848 128.500,280.167 128.500 C 280.389 128.500,280.500 128.389,280.500 128.167 C 280.500 127.772,280.498 127.772,280.125 128.181 M144.500 128.250 C 144.500 128.409,144.333 128.504,144.042 128.511 L 143.583 128.521 143.987 128.682 C 144.280 128.799,144.428 128.785,144.526 128.630 C 144.677 128.393,144.713 128.000,144.583 128.000 C 144.537 128.000,144.500 128.112,144.500 128.250 M206.500 128.543 C 206.500 129.157,206.747 129.500,207.189 129.500 C 207.380 129.500,207.496 129.655,207.531 129.958 C 207.572 130.318,207.682 130.428,208.042 130.469 C 208.426 130.514,208.500 130.602,208.500 131.011 C 208.500 131.436,208.560 131.499,208.958 131.489 C 209.399 131.479,209.402 131.473,209.042 131.328 C 208.823 131.240,208.667 131.034,208.667 130.835 C 208.667 130.633,208.498 130.416,208.255 130.305 C 208.029 130.202,207.883 130.054,207.932 129.976 C 207.980 129.897,207.940 129.833,207.843 129.833 C 207.746 129.833,207.667 129.700,207.667 129.537 C 207.667 129.118,207.179 128.473,206.963 128.606 C 206.863 128.668,206.823 128.650,206.873 128.567 C 206.924 128.485,206.860 128.320,206.733 128.202 C 206.537 128.021,206.500 128.076,206.500 128.543 M184.557 128.860 C 184.587 129.057,184.793 129.367,185.014 129.547 L 185.417 129.874 185.470 129.427 C 185.534 128.900,185.251 128.500,184.814 128.500 C 184.589 128.500,184.517 128.600,184.557 128.860 M226.500 128.801 C 226.500 129.184,226.816 129.500,227.200 129.500 C 227.751 129.500,227.602 130.466,227.042 130.531 C 226.584 130.583,226.219 131.500,226.656 131.500 C 226.829 131.500,226.907 131.252,226.839 130.917 C 226.821 130.825,226.859 130.804,226.925 130.869 C 226.990 130.935,227.188 130.911,227.364 130.817 C 227.773 130.598,227.749 128.910,227.334 128.727 C 226.773 128.480,226.500 128.504,226.500 128.801 M230.690 128.720 C 230.815 128.855,230.968 128.934,231.030 128.897 C 231.518 128.602,231.367 130.485,230.857 131.042 C 230.626 131.294,230.527 131.500,230.635 131.500 C 230.744 131.500,230.834 131.406,230.836 131.292 C 230.838 131.153,230.891 131.166,230.996 131.332 C 231.124 131.534,231.193 131.541,231.367 131.367 C 231.541 131.193,231.534 131.124,231.332 130.996 C 231.154 130.883,231.145 130.838,231.299 130.836 C 231.822 130.830,231.473 128.590,230.940 128.529 C 230.527 128.482,230.493 128.507,230.690 128.720 M235.529 128.940 C 235.574 129.334,235.670 129.424,236.083 129.461 C 236.574 129.504,236.576 129.501,236.203 129.286 C 235.994 129.165,235.855 129.032,235.895 128.991 C 235.934 128.950,235.856 128.815,235.720 128.690 C 235.507 128.493,235.482 128.527,235.529 128.940 M245.700 128.700 C 245.590 128.810,245.502 129.129,245.505 129.408 C 245.510 129.891,245.523 129.901,245.755 129.593 C 245.890 129.415,246.000 129.331,246.000 129.405 C 246.000 129.480,246.116 129.445,246.257 129.327 C 246.452 129.166,246.561 129.161,246.707 129.307 C 247.007 129.607,247.500 129.540,247.500 129.200 C 247.500 128.739,247.159 128.500,246.500 128.500 C 246.170 128.500,245.810 128.590,245.700 128.700 M279.062 128.805 C 279.075 128.969,278.969 129.075,278.805 129.062 C 278.628 129.049,278.560 129.128,278.618 129.280 C 278.668 129.410,278.868 129.495,279.063 129.467 C 279.475 129.408,279.641 128.757,279.280 128.618 C 279.128 128.560,279.049 128.628,279.062 128.805 M195.333 128.922 C 195.333 129.062,195.165 129.245,194.958 129.328 C 194.598 129.473,194.601 129.479,195.042 129.489 C 195.422 129.498,195.500 129.429,195.500 129.083 C 195.500 128.854,195.463 128.667,195.417 128.667 C 195.371 128.667,195.333 128.782,195.333 128.922 M140.500 129.456 C 140.500 130.156,140.731 130.500,141.200 130.500 C 141.656 130.500,141.564 129.978,141.000 129.360 L 140.500 128.813 140.500 129.456 M191.500 129.294 C 191.500 129.395,191.296 129.502,191.048 129.531 C 190.688 129.573,190.573 129.694,190.486 130.123 L 190.376 130.663 191.045 129.994 C 191.413 129.626,191.666 129.277,191.607 129.218 C 191.548 129.159,191.500 129.194,191.500 129.294 M170.500 129.912 C 170.500 130.372,170.789 130.573,171.282 130.457 C 171.526 130.399,171.494 130.349,171.115 130.193 C 170.857 130.087,170.690 129.931,170.743 129.845 C 170.796 129.760,170.763 129.643,170.669 129.585 C 170.571 129.524,170.500 129.662,170.500 129.912 M219.611 129.611 C 219.550 129.672,219.505 129.916,219.511 130.153 C 219.522 130.580,219.524 130.580,219.702 130.212 C 219.901 129.800,220.247 129.644,220.750 129.743 C 220.933 129.779,221.219 129.814,221.385 129.821 C 221.551 129.828,221.645 129.900,221.595 129.981 C 221.483 130.163,221.798 130.423,222.271 130.538 C 222.645 130.630,222.655 130.177,222.289 129.708 C 222.117 129.489,219.817 129.405,219.611 129.611 M239.577 129.657 C 239.639 129.757,239.760 129.796,239.845 129.743 C 239.931 129.690,240.071 129.831,240.157 130.057 C 240.398 130.692,240.638 130.735,240.514 130.121 C 240.426 129.688,240.314 129.573,239.935 129.529 C 239.627 129.493,239.503 129.537,239.577 129.657 M264.556 129.875 C 264.586 130.081,264.770 130.323,264.967 130.412 C 265.163 130.502,265.354 130.689,265.392 130.829 C 265.430 130.969,265.470 130.817,265.481 130.492 C 265.502 129.845,265.265 129.500,264.801 129.500 C 264.586 129.500,264.517 129.605,264.556 129.875 M147.125 130.181 C 146.846 130.486,146.848 130.500,147.167 130.500 C 147.389 130.500,147.500 130.389,147.500 130.167 C 147.500 129.772,147.498 129.772,147.125 130.181 M181.503 130.125 C 181.501 130.404,181.596 130.499,181.875 130.497 C 182.151 130.496,182.190 130.457,182.022 130.350 C 181.897 130.271,181.729 130.103,181.650 129.978 C 181.543 129.810,181.504 129.849,181.503 130.125 M257.250 130.445 C 259.246 130.566,261.630 130.573,261.558 130.458 C 261.515 130.390,260.341 130.347,258.948 130.364 C 257.556 130.381,256.792 130.418,257.250 130.445 M186.708 130.709 C 186.970 130.817,187.167 131.027,187.167 131.199 C 187.167 131.364,187.247 131.500,187.344 131.500 C 187.889 131.500,187.394 130.582,186.833 130.552 L 186.250 130.521 186.708 130.709 M189.519 130.875 C 189.533 131.141,189.560 131.168,189.613 130.969 C 189.654 130.814,189.814 130.654,189.969 130.613 C 190.168 130.560,190.141 130.533,189.875 130.519 C 189.586 130.504,189.504 130.586,189.519 130.875 M194.303 130.868 C 194.271 131.094,194.089 131.281,193.833 131.352 C 193.449 131.458,193.459 131.468,193.958 131.483 C 194.453 131.499,194.500 131.456,194.500 131.000 C 194.500 130.416,194.380 130.336,194.303 130.868 M223.031 130.613 C 223.186 130.654,223.346 130.814,223.387 130.969 C 223.440 131.168,223.467 131.141,223.481 130.875 C 223.496 130.586,223.414 130.504,223.125 130.519 C 222.859 130.533,222.832 130.560,223.031 130.613 M241.031 130.613 C 241.186 130.654,241.346 130.814,241.387 130.969 C 241.440 131.168,241.467 131.141,241.481 130.875 C 241.496 130.586,241.414 130.504,241.125 130.519 C 240.859 130.533,240.832 130.560,241.031 130.613 M243.700 130.700 C 243.391 131.009,243.451 131.505,243.792 131.452 C 244.225 131.385,244.518 131.165,244.410 130.988 C 244.357 130.903,244.431 130.833,244.573 130.833 C 244.716 130.833,244.833 130.758,244.833 130.667 C 244.833 130.432,243.942 130.458,243.700 130.700 M252.611 130.611 C 252.550 130.672,252.505 130.916,252.511 131.153 C 252.522 131.570,252.528 131.572,252.696 131.226 C 252.791 131.029,253.029 130.791,253.226 130.696 C 253.572 130.528,253.570 130.522,253.153 130.511 C 252.916 130.505,252.672 130.550,252.611 130.611 M236.512 131.042 C 236.505 131.294,236.575 131.500,236.667 131.500 C 236.862 131.500,236.862 131.372,236.667 130.917 C 236.540 130.621,236.522 130.636,236.512 131.042 M141.554 131.583 C 141.581 132.350,142.500 133.089,142.500 132.344 C 142.500 132.247,142.354 132.167,142.176 132.167 C 141.933 132.167,141.812 131.992,141.689 131.458 L 141.525 130.750 141.554 131.583 M261.503 131.125 C 261.501 131.404,261.596 131.499,261.875 131.497 C 262.151 131.496,262.190 131.457,262.022 131.350 C 261.897 131.271,261.729 131.103,261.650 130.978 C 261.543 130.810,261.504 130.849,261.503 131.125 M248.355 131.250 C 248.327 131.646,246.728 133.263,246.250 133.380 C 245.997 133.442,246.027 133.466,246.375 133.481 C 246.640 133.492,246.834 133.412,246.836 133.292 C 246.838 133.153,246.891 133.166,246.996 133.332 C 247.124 133.534,247.193 133.541,247.367 133.367 C 247.517 133.217,247.526 133.118,247.399 133.035 C 247.281 132.958,247.350 132.788,247.597 132.548 C 247.852 132.299,248.001 132.245,248.051 132.381 C 248.108 132.537,248.177 132.534,248.353 132.368 C 248.544 132.187,248.544 132.130,248.355 132.013 C 248.187 131.910,248.181 131.856,248.331 131.806 C 248.447 131.768,248.500 131.564,248.456 131.328 C 248.396 131.010,248.373 130.992,248.355 131.250 M171.505 131.592 C 171.499 132.160,171.755 132.500,172.189 132.500 C 172.380 132.500,172.496 132.655,172.531 132.958 C 172.572 133.315,172.682 133.428,173.032 133.468 C 173.378 133.508,173.492 133.622,173.532 133.968 C 173.591 134.485,175.233 134.760,175.523 134.301 C 175.637 134.122,175.662 134.123,175.664 134.303 C 175.666 134.436,175.816 134.502,176.042 134.470 C 176.473 134.409,176.654 133.761,176.280 133.618 C 176.128 133.560,176.049 133.628,176.062 133.805 C 176.074 133.958,175.971 134.093,175.833 134.106 C 175.696 134.118,175.546 134.146,175.500 134.169 C 175.098 134.364,173.685 134.260,173.894 134.050 C 174.013 133.931,173.224 133.167,172.982 133.167 C 172.889 133.167,172.856 133.098,172.908 133.014 C 172.960 132.930,172.929 132.837,172.839 132.806 C 172.750 132.775,172.652 132.589,172.622 132.391 C 172.556 131.952,172.179 131.473,171.991 131.589 C 171.916 131.635,171.776 131.541,171.682 131.379 C 171.537 131.129,171.509 131.162,171.505 131.592 M182.547 131.750 C 182.579 132.339,182.636 132.423,183.032 132.468 C 183.378 132.508,183.492 132.622,183.532 132.968 C 183.575 133.342,183.676 133.426,184.142 133.470 C 184.508 133.505,184.663 133.462,184.591 133.345 C 184.530 133.247,184.343 133.167,184.175 133.167 C 183.991 133.167,183.829 133.007,183.769 132.767 C 183.706 132.516,183.477 132.300,183.155 132.188 C 182.873 132.089,182.675 131.950,182.717 131.879 C 182.758 131.808,182.728 131.600,182.651 131.417 C 182.547 131.171,182.520 131.258,182.547 131.750 M113.978 131.650 C 114.103 131.729,114.271 131.897,114.350 132.022 C 114.457 132.190,114.496 132.151,114.497 131.875 C 114.499 131.596,114.404 131.501,114.125 131.503 C 113.849 131.504,113.810 131.543,113.978 131.650 M175.577 131.657 C 175.639 131.757,175.760 131.796,175.845 131.743 C 176.057 131.612,176.374 132.492,176.284 132.962 C 176.244 133.171,176.280 133.384,176.364 133.436 C 176.453 133.491,176.496 133.119,176.467 132.557 C 176.419 131.624,176.397 131.581,175.941 131.529 C 175.628 131.493,175.503 131.537,175.577 131.657 M256.062 131.805 C 256.075 131.969,255.969 132.075,255.805 132.062 C 255.628 132.049,255.560 132.128,255.618 132.280 C 255.668 132.410,255.868 132.495,256.063 132.467 C 256.475 132.408,256.641 131.757,256.280 131.618 C 256.128 131.560,256.049 131.628,256.062 131.805 M296.016 131.571 C 296.068 131.623,296.319 131.683,296.574 131.704 C 297.081 131.746,297.438 132.353,297.231 132.820 C 297.166 132.965,297.122 133.158,297.132 133.250 C 297.143 133.342,296.883 133.620,296.556 133.869 L 295.962 134.321 291.726 134.321 C 287.093 134.321,286.762 134.272,286.704 133.574 C 286.683 133.319,286.623 133.068,286.571 133.016 C 286.519 132.964,286.501 133.258,286.530 133.669 L 286.583 134.417 291.813 134.461 C 297.921 134.512,297.532 134.623,297.465 132.849 L 297.417 131.583 296.669 131.530 C 296.258 131.501,295.964 131.519,296.016 131.571 M193.333 132.071 C 193.333 132.202,193.202 132.343,193.042 132.385 C 192.822 132.442,192.843 132.466,193.125 132.481 C 193.395 132.495,193.500 132.407,193.500 132.167 C 193.500 131.983,193.463 131.833,193.417 131.833 C 193.371 131.833,193.333 131.940,193.333 132.071 M219.513 132.125 C 219.504 132.377,219.596 132.499,219.792 132.497 C 219.972 132.496,220.013 132.448,219.900 132.372 C 219.799 132.305,219.674 132.137,219.621 132.000 C 219.558 131.833,219.522 131.874,219.513 132.125 M237.513 132.125 C 237.504 132.377,237.596 132.499,237.792 132.497 C 237.972 132.496,238.013 132.448,237.900 132.372 C 237.799 132.305,237.674 132.137,237.621 132.000 C 237.558 131.833,237.522 131.874,237.513 132.125 M128.500 132.633 C 128.500 133.169,128.767 133.500,129.200 133.500 C 129.378 133.500,129.500 133.622,129.500 133.800 C 129.500 134.353,129.858 134.500,131.200 134.500 L 132.500 134.500 132.485 133.792 L 132.470 133.083 132.316 133.614 C 132.091 134.393,130.900 134.550,130.401 133.866 C 130.287 133.711,130.100 133.583,129.985 133.583 C 129.871 133.583,129.652 133.358,129.500 133.083 C 129.348 132.808,129.116 132.580,128.986 132.576 C 128.856 132.572,128.769 132.478,128.792 132.367 C 128.815 132.257,128.758 132.167,128.667 132.167 C 128.575 132.167,128.500 132.377,128.500 132.633 M209.500 132.633 C 209.500 133.169,209.767 133.500,210.200 133.500 C 210.378 133.500,210.500 133.622,210.500 133.800 C 210.500 134.353,210.858 134.500,212.200 134.500 L 213.500 134.500 213.485 133.792 L 213.470 133.083 213.316 133.614 C 213.091 134.393,211.900 134.550,211.401 133.866 C 211.287 133.711,211.100 133.583,210.985 133.583 C 210.871 133.583,210.652 133.358,210.500 133.083 C 210.348 132.808,210.116 132.580,209.986 132.576 C 209.856 132.572,209.769 132.478,209.792 132.367 C 209.815 132.257,209.758 132.167,209.667 132.167 C 209.575 132.167,209.500 132.377,209.500 132.633 M230.147 132.458 C 230.137 132.527,230.118 132.696,230.106 132.833 C 230.093 132.971,229.958 133.074,229.805 133.062 C 229.628 133.049,229.560 133.128,229.618 133.280 C 229.761 133.654,230.409 133.473,230.470 133.042 C 230.502 132.816,230.436 132.666,230.303 132.664 C 230.141 132.662,230.149 132.619,230.333 132.500 C 230.500 132.392,230.514 132.338,230.375 132.336 C 230.260 132.334,230.158 132.390,230.147 132.458 M146.062 132.805 C 146.075 132.969,145.969 133.075,145.805 133.062 C 145.628 133.049,145.560 133.128,145.618 133.280 C 145.668 133.410,145.868 133.495,146.063 133.467 C 146.475 133.408,146.641 132.757,146.280 132.618 C 146.128 132.560,146.049 132.628,146.062 132.805 M192.303 132.868 C 192.271 133.094,192.089 133.281,191.833 133.352 C 191.449 133.458,191.459 133.468,191.958 133.483 C 192.453 133.499,192.500 133.456,192.500 133.000 C 192.500 132.416,192.380 132.336,192.303 132.868 M238.517 132.958 C 238.502 133.445,238.547 133.499,238.958 133.488 C 239.351 133.478,239.370 133.458,239.087 133.348 C 238.906 133.277,238.707 133.039,238.645 132.818 C 238.546 132.461,238.531 132.476,238.517 132.958 M265.548 132.792 C 265.573 132.952,265.659 133.189,265.740 133.319 C 266.230 134.105,263.930 134.617,263.388 133.843 C 263.254 133.651,263.077 133.536,262.995 133.586 C 262.913 133.637,262.775 133.432,262.688 133.131 L 262.530 132.583 262.515 133.342 C 262.494 134.411,262.646 134.500,264.500 134.500 C 266.301 134.500,266.500 134.400,266.500 133.500 C 266.500 132.841,266.261 132.500,265.801 132.500 C 265.610 132.500,265.519 132.605,265.548 132.792 M220.503 133.125 C 220.501 133.404,220.596 133.499,220.875 133.497 C 221.151 133.496,221.190 133.457,221.022 133.350 C 220.897 133.271,220.729 133.103,220.650 132.978 C 220.543 132.810,220.504 132.849,220.503 133.125 M158.356 133.263 C 158.304 134.059,156.350 134.738,155.902 134.115 C 155.889 134.098,155.797 133.858,155.696 133.583 C 155.513 133.084,155.513 133.084,155.548 133.750 L 155.583 134.417 156.708 134.466 C 157.543 134.503,157.834 134.459,157.836 134.299 C 157.838 134.145,157.883 134.154,157.996 134.332 C 158.124 134.534,158.193 134.541,158.367 134.367 C 158.541 134.193,158.539 134.127,158.355 134.013 C 158.187 133.910,158.181 133.856,158.331 133.806 C 158.447 133.768,158.500 133.564,158.456 133.328 C 158.392 132.989,158.375 132.978,158.356 133.263 M270.530 133.669 L 270.583 134.417 271.708 134.466 C 272.543 134.503,272.834 134.459,272.836 134.299 C 272.838 134.145,272.883 134.154,272.996 134.332 C 273.124 134.534,273.193 134.541,273.367 134.367 C 273.541 134.193,273.534 134.124,273.332 133.996 C 273.166 133.891,273.153 133.838,273.292 133.836 C 273.412 133.834,273.492 133.640,273.481 133.375 C 273.466 133.028,273.442 132.998,273.381 133.250 C 273.075 134.515,270.805 134.790,270.704 133.574 C 270.683 133.319,270.623 133.068,270.571 133.016 C 270.519 132.964,270.501 133.258,270.530 133.669 M103.552 133.750 L 103.583 134.417 108.489 134.461 C 112.302 134.495,113.424 134.458,113.528 134.294 C 113.634 134.127,113.662 134.129,113.664 134.303 C 113.666 134.436,113.816 134.502,114.042 134.470 C 114.473 134.409,114.654 133.761,114.280 133.618 C 114.128 133.560,114.049 133.628,114.062 133.805 C 114.074 133.958,113.971 134.085,113.833 134.088 C 113.696 134.090,113.501 134.144,113.401 134.207 C 113.192 134.337,105.188 134.349,104.395 134.220 C 103.991 134.154,103.832 134.015,103.697 133.609 L 103.521 133.083 103.552 133.750 M142.546 133.833 L 142.583 134.417 143.708 134.466 C 144.543 134.503,144.834 134.459,144.836 134.299 C 144.838 134.145,144.883 134.154,144.996 134.332 C 145.124 134.534,145.193 134.541,145.367 134.367 C 145.541 134.193,145.534 134.124,145.332 133.996 C 145.166 133.891,145.153 133.838,145.292 133.836 C 145.406 133.834,145.500 133.715,145.500 133.571 C 145.500 133.397,145.349 133.488,145.057 133.835 C 144.669 134.296,143.104 134.505,142.917 134.120 C 142.907 134.100,142.811 133.896,142.703 133.667 C 142.514 133.264,142.509 133.269,142.546 133.833 M185.529 133.941 C 185.580 134.389,185.631 134.418,186.417 134.444 L 187.250 134.471 186.542 134.295 C 186.152 134.198,185.833 134.022,185.833 133.903 C 185.833 133.784,185.753 133.636,185.654 133.575 C 185.538 133.504,185.494 133.632,185.529 133.941 M190.258 133.810 C 190.204 133.980,189.992 134.200,189.788 134.298 C 189.440 134.466,189.451 134.478,189.958 134.489 C 190.452 134.499,190.500 134.455,190.500 134.000 C 190.500 133.432,190.402 133.355,190.258 133.810 M222.529 133.941 C 222.581 134.398,222.622 134.419,223.579 134.468 C 224.126 134.496,224.523 134.467,224.459 134.404 C 224.348 134.293,224.003 134.233,223.208 134.188 C 223.002 134.176,222.833 134.059,222.833 133.927 C 222.833 133.794,222.753 133.636,222.654 133.575 C 222.538 133.504,222.494 133.632,222.529 133.941 M228.068 133.852 C 227.893 134.047,227.600 134.267,227.417 134.342 C 227.100 134.472,227.102 134.479,227.458 134.489 C 227.665 134.495,227.834 134.406,227.836 134.292 C 227.838 134.153,227.891 134.166,227.996 134.332 C 228.124 134.534,228.193 134.541,228.367 134.367 C 228.541 134.193,228.539 134.127,228.355 134.013 C 228.165 133.896,228.165 133.861,228.356 133.793 C 228.481 133.749,228.539 133.664,228.485 133.605 C 228.431 133.546,228.244 133.657,228.068 133.852 M240.529 133.940 C 240.574 134.334,240.670 134.424,241.083 134.461 C 241.574 134.504,241.576 134.501,241.203 134.286 C 240.994 134.165,240.855 134.032,240.895 133.991 C 240.934 133.950,240.856 133.815,240.720 133.690 C 240.507 133.493,240.482 133.527,240.529 133.940 M245.068 133.852 C 244.893 134.047,244.600 134.267,244.417 134.342 C 244.100 134.472,244.102 134.479,244.458 134.489 C 244.665 134.495,244.834 134.406,244.836 134.292 C 244.838 134.153,244.891 134.166,244.996 134.332 C 245.124 134.534,245.193 134.541,245.367 134.367 C 245.541 134.193,245.539 134.127,245.355 134.013 C 245.165 133.896,245.165 133.861,245.356 133.793 C 245.481 133.749,245.539 133.664,245.485 133.605 C 245.431 133.546,245.244 133.657,245.068 133.852 M252.529 133.940 C 252.591 134.483,254.221 134.779,254.523 134.301 C 254.637 134.122,254.662 134.123,254.664 134.303 C 254.666 134.436,254.816 134.502,255.042 134.470 C 255.473 134.409,255.654 133.761,255.280 133.618 C 255.128 133.560,255.049 133.628,255.062 133.805 C 255.074 133.958,254.971 134.093,254.833 134.106 C 254.696 134.118,254.546 134.146,254.500 134.169 C 254.080 134.373,252.755 134.264,252.892 134.037 C 252.932 133.971,252.855 133.815,252.720 133.690 C 252.507 133.493,252.482 133.527,252.529 133.940 " stroke="none" fill="#1c3c14" fill-rule="evenodd"></path><path id="path1" d="M188.579 81.917 C 188.579 88.425,188.600 91.112,188.625 87.887 C 188.650 84.663,188.650 79.338,188.625 76.054 C 188.600 72.770,188.579 75.408,188.579 81.917 M103.762 119.762 C 103.548 119.976,103.512 120.945,103.512 126.476 C 103.512 133.678,103.559 134.083,104.398 134.220 C 105.189 134.349,113.193 134.337,113.401 134.207 C 113.501 134.144,113.696 134.090,113.833 134.088 C 113.971 134.085,114.074 133.958,114.062 133.805 C 114.051 133.652,114.127 133.559,114.231 133.599 C 114.483 133.696,114.463 132.063,114.209 131.809 C 113.958 131.558,113.769 131.546,109.875 131.521 L 106.500 131.500 106.500 129.500 L 106.500 127.500 109.542 127.487 C 113.530 127.471,113.361 127.509,113.422 126.605 C 113.496 125.508,113.571 125.530,109.542 125.513 L 106.500 125.500 106.500 123.917 L 106.500 122.333 109.542 122.321 C 113.160 122.305,113.095 122.315,113.697 121.713 C 114.299 121.111,114.561 119.570,114.002 119.915 C 113.925 119.963,113.830 119.908,113.792 119.793 C 113.679 119.452,104.102 119.422,103.762 119.762 M120.249 119.706 C 119.675 120.020,119.667 120.113,119.678 126.500 C 119.689 132.662,119.739 133.744,120.008 133.579 C 120.083 133.532,120.254 133.651,120.388 133.843 C 120.813 134.450,121.914 134.417,122.611 133.777 C 123.330 133.116,123.305 133.287,123.321 128.948 C 123.329 126.571,123.391 125.349,123.500 125.417 C 123.592 125.473,123.667 125.667,123.667 125.847 C 123.667 126.043,123.834 126.239,124.083 126.333 C 124.458 126.476,124.578 126.671,124.520 127.042 C 124.509 127.110,124.575 127.167,124.667 127.167 C 124.758 127.167,124.815 127.223,124.792 127.292 C 124.769 127.360,124.795 127.417,124.849 127.417 C 125.107 127.417,125.466 127.891,125.666 128.498 C 125.822 128.972,125.981 129.167,126.209 129.167 C 126.391 129.167,126.569 129.312,126.618 129.500 C 126.666 129.683,126.776 129.833,126.863 129.833 C 126.949 129.833,126.980 129.897,126.932 129.976 C 126.883 130.054,127.029 130.202,127.255 130.305 C 127.498 130.416,127.667 130.633,127.667 130.834 C 127.667 131.044,127.826 131.236,128.083 131.333 C 128.458 131.476,128.578 131.671,128.520 132.042 C 128.509 132.110,128.575 132.167,128.667 132.167 C 128.758 132.167,128.815 132.257,128.792 132.367 C 128.769 132.478,128.856 132.572,128.986 132.576 C 129.116 132.580,129.348 132.808,129.500 133.083 C 129.652 133.358,129.871 133.583,129.985 133.583 C 130.100 133.583,130.287 133.711,130.401 133.866 C 130.929 134.589,132.090 134.387,132.327 133.532 C 132.700 132.189,132.548 119.871,132.156 119.661 C 131.544 119.334,130.120 119.578,129.794 120.067 C 129.727 120.167,129.665 122.125,129.656 124.417 C 129.645 127.325,129.591 128.450,129.478 128.141 C 129.385 127.885,129.144 127.655,128.908 127.596 C 128.684 127.540,128.500 127.379,128.500 127.239 C 128.500 127.099,128.294 126.793,128.042 126.559 C 127.790 126.326,127.583 126.086,127.582 126.026 C 127.578 125.726,126.961 124.671,126.835 124.749 C 126.675 124.848,126.447 124.553,126.389 124.171 C 126.346 123.884,125.840 123.477,125.662 123.586 C 125.595 123.627,125.498 123.447,125.445 123.184 C 125.379 122.852,125.221 122.675,124.925 122.600 C 124.691 122.542,124.500 122.378,124.500 122.237 C 124.500 122.097,124.258 121.760,123.963 121.491 C 123.667 121.221,123.480 121.000,123.547 121.000 C 123.790 121.000,122.999 119.769,122.713 119.702 C 122.003 119.537,120.554 119.539,120.249 119.706 M137.676 119.740 C 137.177 120.344,137.793 122.750,138.358 122.401 C 138.436 122.353,138.511 122.637,138.525 123.032 C 138.554 123.848,138.559 123.887,138.733 124.625 C 138.822 125.004,138.956 125.167,139.180 125.167 C 139.394 125.167,139.507 125.290,139.521 125.542 C 139.574 126.468,139.637 126.740,139.813 126.799 C 139.917 126.833,139.963 126.925,139.915 127.002 C 139.868 127.079,139.980 127.191,140.164 127.249 C 140.382 127.318,140.507 127.513,140.521 127.803 C 140.569 128.803,140.640 129.019,141.061 129.439 C 141.302 129.681,141.500 130.015,141.500 130.181 C 141.500 131.084,141.871 132.167,142.180 132.167 C 142.405 132.167,142.506 132.291,142.521 132.583 C 142.532 132.813,142.557 133.056,142.576 133.125 C 142.890 134.267,142.789 134.192,144.083 134.230 C 144.450 134.241,144.809 134.325,144.882 134.417 C 144.956 134.510,144.992 134.436,144.965 134.250 C 144.929 134.002,145.002 133.926,145.250 133.953 C 145.433 133.974,145.494 133.950,145.384 133.901 C 145.275 133.852,145.227 133.705,145.277 133.574 C 145.327 133.442,145.448 133.385,145.546 133.445 C 145.654 133.512,145.685 133.455,145.625 133.298 C 145.559 133.127,145.619 133.048,145.805 133.062 C 145.969 133.075,146.075 132.969,146.062 132.805 C 146.051 132.652,146.126 132.559,146.229 132.598 C 146.353 132.645,146.434 132.314,146.466 131.626 C 146.494 131.053,146.597 130.555,146.695 130.521 C 147.147 130.364,147.445 129.844,147.471 129.167 C 147.500 128.437,147.868 127.818,148.224 127.901 C 148.330 127.925,148.361 127.914,148.293 127.876 C 148.225 127.838,148.231 127.681,148.307 127.528 C 148.382 127.375,148.458 126.950,148.475 126.583 C 148.498 126.090,148.619 125.824,148.942 125.560 C 149.358 125.219,149.431 125.000,149.479 123.954 C 149.494 123.625,149.620 123.446,149.917 123.333 C 150.146 123.246,150.343 123.079,150.355 122.962 C 150.366 122.846,150.399 122.600,150.427 122.417 C 150.456 122.233,150.502 121.851,150.531 121.567 C 150.564 121.241,150.672 121.057,150.826 121.067 C 150.988 121.078,151.085 120.884,151.119 120.480 C 151.177 119.780,150.310 119.388,149.057 119.547 C 147.871 119.698,147.707 119.859,147.571 121.000 C 147.432 122.168,147.262 122.578,146.987 122.409 C 146.901 122.356,146.783 122.438,146.724 122.592 C 146.625 122.849,146.602 123.031,146.526 124.129 C 146.510 124.366,146.344 124.568,146.083 124.667 C 145.854 124.754,145.662 124.921,145.657 125.038 C 145.590 126.523,145.352 127.121,144.925 126.879 C 144.829 126.824,144.804 126.839,144.869 126.912 C 144.935 126.984,144.908 127.194,144.809 127.378 C 144.711 127.562,144.616 127.925,144.598 128.185 C 144.531 129.148,143.514 128.908,143.479 127.921 C 143.468 127.598,143.440 127.258,143.417 127.167 C 143.394 127.075,143.366 126.905,143.354 126.790 C 143.343 126.674,143.170 126.505,142.971 126.415 C 142.772 126.324,142.587 126.100,142.560 125.917 C 142.533 125.733,142.478 125.308,142.438 124.972 C 142.373 124.428,142.018 123.539,142.005 123.887 C 141.985 124.438,141.517 123.364,141.441 122.592 C 141.389 122.060,141.325 121.615,141.298 121.604 C 140.847 121.413,140.603 121.157,140.558 120.825 C 140.427 119.867,140.327 119.692,139.854 119.588 C 139.172 119.438,137.849 119.530,137.676 119.740 M155.726 119.798 C 155.559 119.965,155.512 121.428,155.512 126.476 C 155.512 133.092,155.600 134.142,156.153 134.189 C 156.298 134.201,156.717 134.220,157.083 134.230 C 157.450 134.241,157.809 134.325,157.882 134.417 C 157.956 134.510,157.992 134.436,157.965 134.250 C 157.929 134.002,158.002 133.926,158.250 133.953 C 158.433 133.974,158.496 133.951,158.389 133.903 C 158.252 133.841,158.241 133.658,158.350 133.283 C 158.697 132.083,158.521 119.856,158.153 119.659 C 157.717 119.426,156.000 119.524,155.726 119.798 M165.250 119.703 C 164.675 120.023,164.667 120.113,164.678 126.500 C 164.689 132.662,164.739 133.744,165.008 133.579 C 165.083 133.532,165.254 133.651,165.388 133.843 C 165.813 134.450,166.914 134.417,167.611 133.777 C 168.281 133.162,168.304 133.074,168.321 131.034 L 168.333 129.485 169.542 129.534 C 170.411 129.570,170.738 129.643,170.707 129.795 C 170.684 129.912,170.852 130.079,171.082 130.166 C 171.312 130.254,171.510 130.383,171.521 130.454 C 171.533 130.525,171.560 130.742,171.581 130.936 C 171.630 131.393,171.820 131.694,171.993 131.588 C 172.179 131.473,172.556 131.954,172.622 132.391 C 172.652 132.589,172.750 132.775,172.839 132.806 C 172.929 132.837,172.960 132.930,172.908 133.014 C 172.856 133.098,172.889 133.167,172.982 133.167 C 173.224 133.167,174.013 133.931,173.894 134.050 C 173.685 134.260,175.098 134.364,175.500 134.169 C 175.546 134.146,175.696 134.118,175.833 134.106 C 175.971 134.093,176.074 133.958,176.062 133.805 C 176.048 133.619,176.127 133.559,176.298 133.625 C 176.488 133.698,176.516 133.661,176.407 133.487 C 176.327 133.356,176.280 133.095,176.305 132.906 C 176.365 132.441,176.039 131.623,175.842 131.745 C 175.652 131.862,175.278 131.224,175.411 131.009 C 175.462 130.927,175.279 130.699,175.005 130.504 C 174.731 130.308,174.515 130.096,174.527 130.032 C 174.566 129.812,174.134 128.834,174.025 128.899 C 173.966 128.935,173.820 128.860,173.702 128.733 C 173.498 128.512,173.837 128.389,174.387 128.484 C 174.463 128.498,174.478 128.433,174.421 128.340 C 174.364 128.248,174.583 127.906,174.908 127.580 C 175.234 127.255,175.500 126.866,175.500 126.716 C 175.500 126.370,175.970 125.841,176.224 125.901 C 176.330 125.925,176.361 125.914,176.293 125.876 C 176.225 125.838,176.230 125.681,176.305 125.528 C 176.609 124.902,176.412 123.022,175.996 122.579 C 175.779 122.348,175.583 122.067,175.561 121.955 C 175.390 121.105,175.304 120.892,175.061 120.714 C 174.909 120.602,174.728 120.545,174.660 120.588 C 174.506 120.683,174.300 120.188,174.416 120.001 C 174.710 119.525,166.074 119.243,165.250 119.703 M185.042 119.680 C 184.835 119.758,184.667 119.944,184.667 120.092 C 184.667 120.241,184.446 120.446,184.176 120.547 C 183.889 120.656,183.646 120.894,183.589 121.122 C 183.535 121.336,183.312 121.580,183.094 121.663 C 182.843 121.758,182.656 122.001,182.586 122.323 C 182.485 122.783,182.332 122.912,181.958 122.853 C 181.890 122.842,181.847 122.890,181.863 122.958 C 181.879 123.027,181.799 123.411,181.685 123.811 C 181.121 125.783,181.608 130.865,182.319 130.426 C 182.445 130.348,182.754 131.563,182.689 131.883 C 182.674 131.956,182.888 132.095,183.165 132.191 C 183.477 132.300,183.707 132.519,183.769 132.767 C 183.829 133.007,183.991 133.167,184.175 133.167 C 184.343 133.167,184.527 133.242,184.583 133.333 C 184.640 133.425,184.914 133.500,185.192 133.500 C 185.549 133.500,185.722 133.593,185.781 133.818 C 185.997 134.645,189.989 134.657,190.251 133.831 C 190.314 133.632,190.593 133.516,191.175 133.447 C 192.172 133.329,192.333 133.244,192.333 132.837 C 192.333 132.629,192.495 132.491,192.822 132.419 C 193.187 132.339,193.338 132.189,193.417 131.833 C 193.488 131.509,193.640 131.337,193.886 131.302 C 194.182 131.260,194.282 131.083,194.422 130.350 C 194.554 129.662,194.682 129.418,194.964 129.314 C 195.398 129.153,195.377 129.268,195.418 126.833 C 195.451 124.866,195.238 123.750,194.831 123.750 C 194.703 123.750,194.500 123.331,194.347 122.750 C 194.201 122.200,194.037 121.787,193.983 121.833 C 193.847 121.949,193.319 121.491,193.413 121.339 C 193.606 121.027,193.007 120.586,192.292 120.513 C 192.223 120.506,192.167 120.356,192.167 120.180 C 192.167 119.580,186.372 119.173,185.042 119.680 M201.250 119.704 C 200.675 120.021,200.667 120.113,200.678 126.500 C 200.689 132.662,200.739 133.744,201.008 133.579 C 201.083 133.532,201.254 133.651,201.388 133.843 C 201.813 134.450,202.914 134.417,203.611 133.777 C 204.330 133.116,204.305 133.286,204.321 128.958 C 204.329 126.427,204.389 125.333,204.518 125.333 C 204.619 125.333,204.659 125.448,204.605 125.587 C 204.496 125.870,205.095 126.564,205.326 126.421 C 205.407 126.371,205.522 126.556,205.583 126.832 C 205.657 127.169,205.821 127.366,206.082 127.431 C 206.309 127.488,206.513 127.697,206.572 127.931 C 206.628 128.152,206.751 128.333,206.846 128.333 C 206.942 128.333,206.966 128.420,206.901 128.526 C 206.830 128.641,206.855 128.673,206.963 128.606 C 207.179 128.473,207.667 129.118,207.667 129.537 C 207.667 129.700,207.746 129.833,207.843 129.833 C 207.940 129.833,207.980 129.897,207.932 129.976 C 207.883 130.054,208.029 130.202,208.255 130.305 C 208.498 130.416,208.667 130.633,208.667 130.834 C 208.667 131.044,208.826 131.236,209.083 131.333 C 209.458 131.476,209.578 131.671,209.520 132.042 C 209.509 132.110,209.575 132.167,209.667 132.167 C 209.758 132.167,209.815 132.257,209.792 132.367 C 209.769 132.478,209.856 132.572,209.986 132.576 C 210.116 132.580,210.348 132.808,210.500 133.083 C 210.652 133.358,210.871 133.583,210.985 133.583 C 211.100 133.583,211.287 133.711,211.401 133.866 C 211.929 134.589,213.090 134.387,213.327 133.532 C 213.700 132.189,213.548 119.871,213.156 119.661 C 212.544 119.334,211.120 119.578,210.794 120.067 C 210.727 120.167,210.665 122.125,210.656 124.417 C 210.645 127.325,210.591 128.450,210.478 128.141 C 210.385 127.885,210.144 127.655,209.908 127.596 C 209.684 127.540,209.500 127.379,209.500 127.239 C 209.500 127.099,209.294 126.793,209.042 126.559 C 208.790 126.326,208.583 126.086,208.582 126.026 C 208.578 125.726,207.961 124.671,207.835 124.749 C 207.675 124.848,207.447 124.553,207.389 124.171 C 207.346 123.884,206.840 123.477,206.662 123.586 C 206.595 123.627,206.498 123.447,206.445 123.184 C 206.379 122.852,206.221 122.675,205.925 122.600 C 205.691 122.542,205.491 122.383,205.479 122.247 C 205.440 121.779,205.416 121.694,205.292 121.569 C 205.223 121.501,205.167 121.315,205.167 121.157 C 205.167 120.993,204.996 120.827,204.768 120.770 C 204.525 120.708,204.329 120.505,204.264 120.245 C 204.205 120.011,204.090 119.861,204.009 119.911 C 203.928 119.961,203.832 119.914,203.797 119.807 C 203.710 119.547,201.683 119.466,201.250 119.704 M221.755 119.769 C 221.613 119.911,221.542 120.100,221.597 120.189 C 221.652 120.278,221.468 120.437,221.188 120.543 C 220.834 120.676,220.646 120.882,220.573 121.212 C 220.516 121.475,220.360 121.731,220.228 121.781 C 219.556 122.039,219.277 124.803,219.879 125.243 C 220.019 125.346,220.279 125.689,220.456 126.006 C 220.634 126.324,220.885 126.583,221.014 126.583 C 221.144 126.583,221.324 126.752,221.415 126.958 C 221.505 127.165,221.674 127.343,221.790 127.354 C 221.905 127.366,222.075 127.394,222.167 127.417 C 222.258 127.440,222.640 127.468,223.016 127.479 C 223.534 127.495,223.718 127.576,223.780 127.815 C 223.868 128.151,224.336 128.297,225.750 128.429 C 227.486 128.592,227.575 128.655,227.635 129.742 C 227.684 130.627,227.297 131.241,226.925 130.869 C 226.859 130.804,226.821 130.825,226.839 130.917 C 226.948 131.456,226.818 131.500,225.119 131.500 C 223.493 131.500,223.403 131.482,223.378 131.148 C 223.343 130.692,223.345 130.693,222.574 130.572 C 221.858 130.459,221.451 130.214,221.595 129.981 C 221.645 129.900,221.551 129.828,221.385 129.821 C 221.219 129.814,220.933 129.779,220.750 129.743 C 220.003 129.597,219.672 129.950,219.571 131.000 C 219.485 131.896,219.673 132.343,220.179 132.444 C 220.444 132.497,220.627 132.595,220.586 132.662 C 220.545 132.729,220.608 132.917,220.727 133.080 C 220.935 133.364,221.190 133.432,222.224 133.479 C 222.547 133.493,222.726 133.606,222.785 133.833 C 222.835 134.025,223.024 134.176,223.228 134.188 C 223.423 134.200,223.771 134.240,224.000 134.278 C 224.854 134.418,227.096 134.442,227.447 134.315 C 227.647 134.243,227.841 134.236,227.878 134.300 C 227.915 134.364,227.925 134.330,227.901 134.224 C 227.823 133.892,228.437 133.484,229.066 133.450 C 229.435 133.430,229.642 133.344,229.598 133.229 C 229.559 133.126,229.652 133.051,229.805 133.062 C 229.969 133.075,230.084 132.960,230.085 132.785 C 230.086 132.620,230.161 132.433,230.251 132.368 C 230.342 132.303,230.442 132.063,230.474 131.833 C 230.541 131.344,230.949 130.837,231.224 130.901 C 231.330 130.925,231.371 130.917,231.315 130.883 C 231.260 130.849,231.245 130.544,231.282 130.205 C 231.354 129.548,231.214 128.731,231.055 128.889 C 230.899 129.045,230.500 128.549,230.500 128.198 C 230.500 127.668,230.061 126.780,229.770 126.721 C 229.621 126.691,229.382 126.643,229.238 126.614 C 229.095 126.584,228.753 126.349,228.479 126.090 C 227.946 125.587,227.813 125.554,226.208 125.521 C 225.293 125.503,225.167 125.460,225.167 125.174 C 225.167 124.849,224.727 124.690,223.375 124.525 C 223.260 124.511,223.167 124.359,223.167 124.186 C 223.167 124.012,223.018 123.833,222.833 123.785 C 222.650 123.737,222.500 123.624,222.500 123.533 C 222.500 123.290,223.663 122.311,223.829 122.414 C 223.908 122.463,224.161 122.431,224.392 122.343 C 224.622 122.255,224.841 122.236,224.878 122.300 C 224.915 122.364,224.925 122.330,224.901 122.224 C 224.804 121.809,225.456 121.432,225.755 121.731 C 225.903 121.879,225.962 122.002,225.887 122.005 C 225.539 122.018,226.440 122.380,226.940 122.428 C 227.609 122.493,227.875 122.631,227.743 122.845 C 227.611 123.058,228.495 123.375,228.820 123.231 C 228.965 123.166,229.158 123.120,229.250 123.126 C 230.246 123.200,230.748 120.747,229.767 120.603 C 229.598 120.578,229.359 120.376,229.236 120.154 C 229.113 119.932,229.009 119.812,229.006 119.887 C 229.003 119.962,228.888 119.912,228.752 119.775 C 228.376 119.400,222.130 119.394,221.755 119.769 M239.502 119.741 C 239.274 119.867,239.019 119.928,238.935 119.876 C 238.851 119.824,238.826 119.853,238.880 119.941 C 239.032 120.187,238.766 120.500,238.333 120.583 C 237.870 120.672,237.658 120.858,237.605 121.220 C 237.584 121.365,237.365 121.670,237.120 121.897 C 236.839 122.158,236.633 122.566,236.564 123.003 C 236.503 123.384,236.349 123.735,236.222 123.784 C 235.612 124.018,235.222 128.198,235.759 128.736 C 235.883 128.859,235.945 129.000,235.896 129.048 C 235.848 129.097,235.964 129.186,236.154 129.246 C 236.354 129.309,236.509 129.510,236.521 129.720 C 236.595 130.980,236.779 131.511,237.099 131.388 C 237.268 131.323,237.411 131.462,237.548 131.825 C 237.689 132.199,237.886 132.386,238.208 132.450 C 238.515 132.511,238.667 132.646,238.667 132.858 C 238.667 133.218,239.262 133.500,240.023 133.500 C 240.446 133.500,241.285 133.990,240.887 134.005 C 240.812 134.008,240.900 134.099,241.083 134.207 C 241.467 134.434,243.907 134.513,244.447 134.316 C 244.647 134.243,244.841 134.236,244.878 134.300 C 244.915 134.364,244.925 134.330,244.901 134.224 C 244.791 133.753,246.707 132.960,246.904 133.395 C 246.952 133.498,246.974 133.433,246.953 133.250 C 246.926 133.002,247.002 132.929,247.250 132.965 C 247.492 133.001,247.523 132.973,247.363 132.865 C 247.185 132.744,247.197 132.660,247.429 132.429 C 247.660 132.197,247.744 132.185,247.865 132.363 C 247.973 132.523,248.001 132.492,247.965 132.250 C 247.929 132.002,248.002 131.926,248.250 131.953 C 248.433 131.974,248.497 131.951,248.391 131.903 C 248.254 131.841,248.244 131.651,248.356 131.247 C 248.679 130.074,248.372 129.507,247.408 129.503 C 247.129 129.501,246.813 129.413,246.707 129.307 C 246.561 129.161,246.452 129.166,246.257 129.327 C 246.116 129.445,246.000 129.480,246.000 129.405 C 246.000 129.331,245.896 129.412,245.769 129.586 C 245.641 129.760,245.572 129.994,245.615 130.105 C 245.700 130.328,245.107 130.718,244.939 130.550 C 244.881 130.492,244.833 130.532,244.833 130.639 C 244.833 130.746,244.716 130.833,244.573 130.833 C 244.431 130.833,244.355 130.900,244.405 130.981 C 244.595 131.288,244.039 131.458,242.745 131.488 C 241.480 131.518,241.404 131.499,241.378 131.157 C 241.345 130.709,241.324 130.688,240.823 130.613 C 240.600 130.580,240.323 130.372,240.209 130.151 C 240.094 129.931,239.928 129.768,239.839 129.790 C 239.602 129.849,239.333 129.317,239.333 128.790 C 239.333 128.674,239.165 128.505,238.958 128.415 C 238.460 128.196,238.321 125.028,238.811 125.063 C 238.970 125.075,239.075 124.967,239.062 124.805 C 239.051 124.652,239.129 124.560,239.235 124.601 C 239.353 124.646,239.444 124.463,239.470 124.129 C 239.492 123.829,239.593 123.555,239.693 123.521 C 239.926 123.441,240.440 122.929,240.521 122.695 C 240.581 122.523,241.956 122.296,242.833 122.313 C 244.247 122.341,244.586 122.425,244.748 122.793 C 244.838 122.998,245.037 123.167,245.188 123.167 C 245.449 123.167,245.753 123.597,245.692 123.879 C 245.648 124.084,246.531 124.359,246.820 124.230 C 246.965 124.166,247.134 124.124,247.195 124.136 C 247.257 124.148,247.536 123.944,247.816 123.683 C 248.604 122.947,248.654 121.708,247.900 121.598 C 247.726 121.573,247.557 121.409,247.525 121.234 C 247.494 121.060,247.396 120.842,247.309 120.750 C 247.156 120.589,247.086 120.566,246.619 120.521 C 246.501 120.509,246.392 120.342,246.378 120.148 C 246.363 119.954,246.304 119.748,246.245 119.689 C 246.013 119.457,239.932 119.503,239.502 119.741 M257.964 119.614 C 257.728 119.676,257.516 120.219,257.422 121.000 C 257.393 121.240,257.124 121.493,256.987 121.409 C 256.901 121.356,256.783 121.438,256.724 121.592 C 256.625 121.849,256.602 122.031,256.526 123.129 C 256.510 123.366,256.344 123.568,256.083 123.667 C 255.854 123.754,255.661 123.921,255.654 124.038 C 255.562 125.565,255.343 126.116,254.925 125.879 C 254.829 125.824,254.804 125.839,254.869 125.912 C 254.935 125.984,254.910 126.191,254.813 126.371 C 254.717 126.550,254.608 126.897,254.572 127.140 C 254.414 128.182,254.244 128.567,254.006 128.421 C 253.931 128.374,253.811 128.541,253.741 128.793 C 253.570 129.408,253.555 129.500,253.525 130.114 C 253.508 130.475,253.399 130.676,253.182 130.745 C 252.609 130.927,252.284 133.260,252.765 133.741 C 252.886 133.862,252.941 134.003,252.889 134.055 C 252.684 134.261,254.104 134.361,254.500 134.169 C 254.546 134.146,254.696 134.118,254.833 134.106 C 254.971 134.093,255.074 133.958,255.062 133.805 C 255.051 133.652,255.130 133.560,255.237 133.602 C 255.349 133.644,255.444 133.513,255.457 133.297 C 255.521 132.299,255.596 132.052,255.833 132.067 C 255.971 132.076,256.074 131.958,256.062 131.805 C 256.051 131.652,256.130 131.560,256.239 131.602 C 256.354 131.646,256.439 131.519,256.444 131.297 C 256.468 130.247,256.265 130.320,259.026 130.371 C 261.395 130.414,261.555 130.437,261.600 130.745 C 261.654 131.115,262.140 131.536,262.358 131.401 C 262.436 131.353,262.500 131.562,262.501 131.865 C 262.502 132.609,262.816 133.697,262.998 133.585 C 263.078 133.535,263.254 133.651,263.388 133.843 C 263.930 134.617,266.230 134.104,265.740 133.319 C 265.567 133.042,265.568 133.051,265.447 131.688 C 265.395 131.106,265.329 130.620,265.301 130.607 C 265.273 130.594,265.107 130.504,264.931 130.408 C 264.621 130.237,264.581 130.130,264.441 129.083 C 264.339 128.329,264.022 127.633,263.832 127.751 C 263.625 127.879,263.534 127.633,263.432 126.672 C 263.356 125.954,262.953 125.406,262.642 125.599 C 262.564 125.647,262.500 125.343,262.500 124.924 C 262.500 123.903,262.162 122.871,261.796 122.775 C 261.510 122.700,261.454 122.466,261.440 121.297 C 261.436 120.952,261.322 120.804,260.967 120.680 C 260.710 120.591,260.500 120.406,260.500 120.271 C 260.500 119.623,259.205 119.288,257.964 119.614 M270.683 119.731 C 270.521 119.925,270.512 133.089,270.672 133.806 C 270.745 134.129,271.486 134.368,272.207 134.300 C 272.550 134.268,272.866 134.318,272.910 134.412 C 272.954 134.506,272.974 134.433,272.953 134.250 C 272.926 134.006,273.006 133.926,273.250 133.953 C 273.433 133.974,273.496 133.951,273.389 133.903 C 273.253 133.841,273.240 133.657,273.348 133.284 C 273.431 132.991,273.500 132.020,273.500 131.126 L 273.500 129.500 275.292 129.472 C 276.277 129.456,277.441 129.438,277.878 129.432 C 278.399 129.424,278.647 129.355,278.599 129.231 C 278.559 129.127,278.652 129.051,278.805 129.062 C 278.974 129.075,279.074 128.969,279.060 128.793 C 279.048 128.634,279.102 128.543,279.181 128.592 C 279.446 128.756,280.328 128.164,280.431 127.753 C 280.487 127.529,280.664 127.304,280.825 127.253 C 281.775 126.951,281.788 121.667,280.837 121.667 C 280.608 121.667,280.500 121.557,280.500 121.325 C 280.500 121.138,280.294 120.793,280.042 120.559 C 279.790 120.326,279.580 120.048,279.576 119.942 C 279.572 119.837,279.478 119.769,279.367 119.792 C 279.257 119.815,279.167 119.761,279.167 119.673 C 279.167 119.406,270.906 119.462,270.683 119.731 M286.687 119.726 C 286.522 119.925,286.508 133.073,286.672 133.806 C 286.770 134.243,287.542 134.321,291.726 134.321 L 295.962 134.321 296.556 133.869 C 296.883 133.620,297.143 133.342,297.132 133.250 C 297.122 133.158,297.166 132.965,297.231 132.820 C 297.700 131.760,297.354 131.656,293.042 131.557 L 289.500 131.476 289.500 129.488 L 289.500 127.500 292.208 127.499 C 295.152 127.498,296.088 127.343,296.252 126.828 C 296.376 126.435,296.201 125.793,296.002 125.915 C 295.925 125.963,295.830 125.908,295.792 125.793 C 295.741 125.637,294.921 125.569,292.611 125.528 L 289.500 125.474 289.500 123.903 L 289.500 122.333 292.542 122.321 C 296.160 122.305,296.095 122.315,296.697 121.713 C 297.299 121.111,297.561 119.570,297.002 119.915 C 296.925 119.963,296.830 119.908,296.792 119.793 C 296.686 119.475,286.949 119.410,286.687 119.726 M189.500 122.418 C 189.729 122.439,190.090 122.467,190.302 122.479 C 190.513 122.490,190.642 122.572,190.587 122.661 C 190.458 122.870,191.130 123.542,191.339 123.413 C 191.428 123.358,191.509 123.468,191.521 123.657 C 191.532 123.846,191.557 124.056,191.576 124.125 C 191.833 125.057,191.898 125.167,192.195 125.167 C 192.496 125.167,192.518 125.279,192.489 126.625 C 192.460 128.028,192.296 128.599,191.980 128.404 C 191.811 128.300,191.496 129.010,191.619 129.218 C 191.735 129.415,190.500 130.563,190.107 130.623 C 189.683 130.688,189.655 130.718,189.622 131.148 C 189.584 131.660,187.167 131.696,187.167 131.185 C 187.167 130.887,186.859 130.730,185.927 130.554 C 185.534 130.479,185.485 130.435,185.437 130.107 C 185.417 129.966,185.210 129.701,184.977 129.518 C 184.622 129.239,184.545 129.019,184.491 128.135 C 184.392 126.521,184.500 124.423,184.686 124.358 C 184.777 124.326,184.917 124.213,184.998 124.108 C 185.948 122.859,186.438 122.488,187.241 122.407 C 187.694 122.362,188.094 122.295,188.130 122.259 C 188.166 122.223,188.395 122.236,188.639 122.286 C 188.883 122.337,189.271 122.397,189.500 122.418 M172.292 122.449 C 172.520 122.502,172.667 122.661,172.667 122.856 C 172.667 123.043,172.839 123.240,173.083 123.333 C 173.433 123.466,173.500 123.600,173.500 124.163 C 173.500 124.785,173.387 124.926,172.946 124.849 C 172.870 124.836,172.851 124.893,172.902 124.976 C 172.953 125.059,172.841 125.324,172.652 125.564 C 172.464 125.804,172.361 126.000,172.425 126.000 C 172.489 126.000,172.454 126.104,172.349 126.231 C 172.208 126.401,171.646 126.470,170.245 126.489 L 168.333 126.515 168.333 124.536 C 168.333 123.447,168.387 122.502,168.452 122.437 C 168.585 122.304,171.708 122.314,172.292 122.449 M277.792 122.554 C 277.906 122.639,278.000 122.652,278.000 122.583 C 278.000 122.515,278.112 122.553,278.250 122.667 C 278.539 122.906,278.626 125.765,278.339 125.587 C 278.130 125.458,277.458 126.130,277.587 126.339 C 277.649 126.439,276.893 126.500,275.593 126.500 L 273.500 126.500 273.500 124.399 L 273.500 122.298 275.542 122.350 C 276.665 122.378,277.677 122.470,277.792 122.554 M259.521 124.625 C 259.586 125.516,259.642 125.742,259.813 125.799 C 259.917 125.833,259.963 125.925,259.915 126.002 C 259.868 126.079,259.980 126.191,260.164 126.249 C 260.415 126.329,260.500 126.501,260.500 126.928 L 260.500 127.500 259.101 127.500 C 258.068 127.500,257.679 127.440,257.614 127.271 C 257.560 127.129,257.633 127.049,257.805 127.062 C 257.969 127.075,258.075 126.969,258.062 126.805 C 258.051 126.652,258.126 126.559,258.229 126.598 C 258.353 126.645,258.432 126.318,258.462 125.634 C 258.488 125.045,258.596 124.542,258.712 124.468 C 259.071 124.241,259.499 124.324,259.521 124.625 " stroke="none" fill="#144404" fill-rule="evenodd"></path></g></svg>